Coordinates
version=1
nRows=26
nColumns=38
inDegrees=no

Units are S.I. units (second, meters, Newtons, ...)
If the header above contains a line with 'inDegrees', this indicates whether rotational values are in degrees (yes) or radians (no).

endheader
time	pelvis_tilt	pelvis_list	pelvis_rotation	pelvis_tx	pelvis_ty	pelvis_tz	hip_flexion_r	hip_adduction_r	hip_rotation_r	knee_angle_r	ankle_angle_r	subtalar_angle_r	mtp_angle_r	hip_flexion_l	hip_adduction_l	hip_rotation_l	knee_angle_l	ankle_angle_l	subtalar_angle_l	mtp_angle_l	lumbar_extension	lumbar_bending	lumbar_rotation	arm_flex_r	arm_add_r	arm_rot_r	elbow_flex_r	pro_sup_r	wrist_flex_r	wrist_dev_r	arm_flex_l	arm_add_l	arm_rot_l	elbow_flex_l	pro_sup_l	wrist_flex_l	wrist_dev_l
1.96	-0.357326	1.49727	-1.28854	0.854593	-0.0879078	0.952376	0.513751	-0.0173743	0.0101259	0.932974	-0.049397	0	0	-0.101259	0.0193746	-0.275434	0.261048	0.187021	0	0	-0.169452	-0.0343384	-0.0982653	-0.197209	-0.0667579	-0.418076	0.441505	1.01585	0	0	-0.073988	-0.423142	0.476643	0.66254	0.68851	0	0
1.97	-0.366051	1.49648	-1.28026	0.854606	-0.0963195	0.95152	0.512218	-0.0167703	0.00278403	0.883881	-0.0447213	0	0	-0.115155	0.0202574	-0.274322	0.255565	0.193299	0	0	-0.171434	-0.0332034	-0.0961881	-0.1949	-0.0674085	-0.411821	0.444456	1.00874	0	0	-0.0651196	-0.421753	0.478415	0.658296	0.690425	0	0
1.98	-0.375896	1.49708	-1.27027	0.854484	-0.104773	0.950437	0.511452	-0.0166254	-0.00616722	0.834315	-0.0404142	0	0	-0.125914	0.0205799	-0.274972	0.253707	0.200814	0	0	-0.171688	-0.0326597	-0.0954384	-0.192494	-0.0679428	-0.404929	0.446804	1.00028	0	0	-0.0583488	-0.420758	0.477413	0.656339	0.691995	0	0
1.99	-0.373301	1.49459	-1.27226	0.854616	-0.113456	0.949657	0.504819	-0.0172555	-0.0193474	0.782291	-0.0355637	0	0	-0.144388	0.0226746	-0.268723	0.242753	0.203941	0	0	-0.175761	-0.0315403	-0.0948648	-0.187403	-0.0662383	-0.420632	0.446225	1.03139	0	0	-0.0519092	-0.416107	0.465055	0.651258	0.712899	0	0
2	-0.382946	1.49424	-1.26131	0.854557	-0.122199	0.9485	0.500208	-0.0173375	-0.0340138	0.730221	-0.0305294	0	0	-0.157013	0.022967	-0.266974	0.23886	0.210255	0	0	-0.176772	-0.0304253	-0.095851	-0.18512	-0.0665454	-0.418092	0.449734	1.0289	0	0	-0.045934	-0.414785	0.46399	0.649377	0.714787	0	0
2.01	-0.40018	1.49422	-1.24266	0.854393	-0.131078	0.947195	0.49519	-0.0165309	-0.0505677	0.677736	-0.0247782	0	0	-0.168499	0.0224018	-0.266467	0.236447	0.217206	0	0	-0.17691	-0.0288486	-0.0970579	-0.183494	-0.0669686	-0.414906	0.453268	1.0273	0	0	-0.0404414	-0.413467	0.463595	0.647266	0.716508	0	0
2.02	-0.405059	1.49469	-1.22956	0.853633	-0.140452	0.945799	0.488265	-0.00946015	-0.0639892	0.627039	-0.0242972	0	0	-0.181672	0.0151692	-0.274291	0.23179	0.229366	0	0	-0.17615	-0.0293654	-0.101316	-0.184386	-0.065615	-0.411626	0.455724	1.02615	0	0	-0.0341608	-0.4133	0.463452	0.644973	0.718277	0	0
2.03	-0.437074	1.49471	-1.19615	0.853299	-0.149657	0.944347	0.482117	-0.00768798	-0.0850132	0.574385	-0.0173715	0	0	-0.192706	0.0126345	-0.274516	0.230877	0.23742	0	0	-0.175227	-0.0266597	-0.102224	-0.183727	-0.066199	-0.408663	0.458411	1.02549	0	0	-0.0300008	-0.411596	0.462846	0.643339	0.719767	0	0
2.04	-0.473945	1.49584	-1.15804	0.852841	-0.158977	0.942708	0.476788	-0.00502499	-0.106145	0.522504	-0.0107093	0	0	-0.202062	0.0100898	-0.275011	0.230637	0.245271	0	0	-0.172656	-0.0241878	-0.103353	-0.183552	-0.0664131	-0.40696	0.461995	1.0249	0	0	-0.0270782	-0.410093	0.461632	0.6426	0.721312	0	0
2.05	-0.521104	1.49756	-1.10942	0.852264	-0.168402	0.940934	0.471714	-0.00125662	-0.127526	0.471048	-0.00422384	0	0	-0.209715	0.00671831	-0.276169	0.231938	0.253522	0	0	-0.16896	-0.0214196	-0.10452	-0.183003	-0.065701	-0.411479	0.464248	1.03398	0	0	-0.0242905	-0.409547	0.464701	0.64295	0.714047	0	0
2.06	-0.578857	1.49805	-1.05039	0.851562	-0.178058	0.939223	0.464029	0.00484096	-0.149408	0.41801	0.0013081	0	0	-0.218779	0.00207828	-0.277049	0.232516	0.261552	0	0	-0.165681	-0.0175145	-0.105825	-0.183577	-0.0657857	-0.41067	0.468014	1.03483	0	0	-0.0224918	-0.40765	0.463534	0.64208	0.715185	0	0
2.07	-0.651111	1.49581	-0.976322	0.850703	-0.187824	0.937672	0.451727	0.0151975	-0.170491	0.361226	0.00411242	0	0	-0.228756	-0.00603035	-0.279584	0.235291	0.270804	0	0	-0.164167	-0.0112474	-0.108066	-0.186464	-0.0684403	-0.390929	0.476358	1.00292	0	0	-0.0217126	-0.404251	0.455816	0.64049	0.725969	0	0
2.08	-0.718717	1.49772	-0.908231	0.849569	-0.197625	0.93577	0.445689	0.0239081	-0.188453	0.311192	0.00920459	0	0	-0.233994	-0.0111651	-0.282474	0.239714	0.278812	0	0	-0.158409	-0.00867746	-0.109036	-0.186357	-0.0672614	-0.393721	0.47729	1.01022	0	0	-0.0214861	-0.403197	0.454643	0.640862	0.726078	0	0
2.09	-0.793618	1.49822	-0.832625	0.848341	-0.207566	0.93399	0.436603	0.0351096	-0.202416	0.258725	0.0112291	0	0	-0.239221	-0.0180065	-0.286783	0.246099	0.287231	0	0	-0.153414	-0.00505812	-0.110047	-0.186438	-0.0661288	-0.396087	0.478557	1.01718	0	0	-0.0212679	-0.401897	0.453683	0.640779	0.726612	0	0
2.1	-0.868606	1.49849	-0.756888	0.847001	-0.217659	0.932234	0.426327	0.0473095	-0.211352	0.206649	0.0108416	0	0	-0.243734	-0.0252938	-0.291628	0.254374	0.295152	0	0	-0.148167	-0.00167752	-0.110835	-0.18687	-0.0649204	-0.398278	0.479501	1.02403	0	0	-0.0211686	-0.400644	0.453405	0.640368	0.727463	0	0
2.11	-0.939033	1.49831	-0.685549	0.845621	-0.227959	0.930527	0.41535	0.0598542	-0.215204	0.157528	0.00875784	0	0	-0.248079	-0.032699	-0.296758	0.263933	0.302099	0	0	-0.143118	0.00157692	-0.11152	-0.187709	-0.0637978	-0.400296	0.480816	1.03021	0	0	-0.0212252	-0.399201	0.453585	0.639687	0.728391	0	0
2.12	-0.996248	1.498	-0.627312	0.844266	-0.238471	0.928907	0.405342	0.0711749	-0.217142	0.116436	0.00751572	0	0	-0.252645	-0.0394716	-0.302008	0.274524	0.308037	0	0	-0.138695	0.00424915	-0.112322	-0.18892	-0.0628107	-0.401826	0.482087	1.03531	0	0	-0.0216306	-0.39763	0.453855	0.639053	0.729463	0	0
2.13	-1.03892	1.49778	-0.583648	0.842951	-0.249123	0.927378	0.399408	0.0800344	-0.222001	0.0907529	0.0102623	0	0	-0.257376	-0.0455231	-0.306887	0.286304	0.312892	0	0	-0.134943	0.00632834	-0.113007	-0.191076	-0.0618142	-0.403198	0.484777	1.03904	0	0	-0.0218224	-0.396075	0.455463	0.637935	0.730563	0	0
2.14	-1.0703	1.49766	-0.551421	0.841676	-0.259886	0.925946	0.399638	0.0858604	-0.231511	0.0852411	0.0173739	0	0	-0.261728	-0.0513755	-0.311394	0.300331	0.316791	0	0	-0.131885	0.00809765	-0.113244	-0.194308	-0.0610278	-0.404413	0.489317	1.04172	0	0	-0.0217709	-0.394377	0.458171	0.636602	0.731383	0	0
2.15	-1.09263	1.49732	-0.528205	0.840493	-0.270808	0.924617	0.405102	0.0890457	-0.243746	0.098124	0.0255687	0	0	-0.265988	-0.0572481	-0.31495	0.315999	0.319411	0	0	-0.129747	0.0102299	-0.113433	-0.198469	-0.0606691	-0.405872	0.495873	1.04389	0	0	-0.021922	-0.392444	0.461647	0.635562	0.731545	0	0
2.16	-1.12094	1.4966	-0.498068	0.839469	-0.281929	0.923284	0.415513	0.090226	-0.259327	0.126203	0.0322237	0	0	-0.26752	-0.0651284	-0.319316	0.337344	0.32288	0	0	-0.127189	0.0136529	-0.114477	-0.206737	-0.0628134	-0.393077	0.509526	1.01512	0	0	-0.0227428	-0.390203	0.466467	0.634931	0.728766	0	0
2.17	-1.11974	1.49481	-0.496367	0.83865	-0.29342	0.922383	0.419452	0.0916214	-0.262877	0.151478	0.0288707	0	0	-0.27373	-0.0713771	-0.315745	0.353153	0.320875	0	0	-0.126949	0.0175119	-0.116614	-0.212038	-0.0631949	-0.397585	0.516119	1.0213	0	0	-0.0245591	-0.386614	0.467556	0.633469	0.729015	0	0
2.18	-1.12666	1.49261	-0.484774	0.838027	-0.305214	0.92155	0.422299	0.093053	-0.26404	0.178424	0.0238761	0	0	-0.277174	-0.0797021	-0.313255	0.373373	0.318638	0	0	-0.125248	0.022621	-0.121075	-0.219079	-0.0642063	-0.401319	0.52416	1.02572	0	0	-0.0280294	-0.382407	0.467881	0.631084	0.729625	0	0
2.19	-1.14544	1.49056	-0.459386	0.837532	-0.317339	0.920738	0.423011	0.0949338	-0.261354	0.202213	0.0203808	0	0	-0.27739	-0.0897822	-0.309627	0.397675	0.315147	0	0	-0.121352	0.0284283	-0.127613	-0.227832	-0.0655986	-0.404375	0.532329	1.02895	0	0	-0.0326704	-0.37797	0.468169	0.628466	0.730091	0	0
2.2	-1.17369	1.48892	-0.422526	0.837092	-0.329753	0.919897	0.421584	0.0969217	-0.256898	0.221071	0.0215936	0	0	-0.273933	-0.101436	-0.304203	0.426529	0.310106	0	0	-0.115494	0.0343744	-0.135848	-0.238281	-0.0667987	-0.408076	0.540847	1.03106	0	0	-0.0383156	-0.373663	0.46819	0.626247	0.730332	0	0
2.21	-1.21303	1.48774	-0.373322	0.836604	-0.342366	0.918989	0.418973	0.0990546	-0.252703	0.234295	0.0230241	0	0	-0.266501	-0.114402	-0.297858	0.459928	0.303051	0	0	-0.107467	0.0400086	-0.145174	-0.249923	-0.0677829	-0.412311	0.548757	1.03297	0	0	-0.0451752	-0.369538	0.466867	0.624556	0.730588	0	0
